<svg xmlns="http://www.w3.org/2000/svg" width="28" height="27" fill="none"><path fill="#000" d="M.98 26v-1.188c.912-.048 1.536-.252 1.872-.612.336-.384.516-.9.54-1.548a32.11 32.11 0 0 0 .072-2.268V4.832c0-.48.012-.936.036-1.368.024-.456.048-.864.072-1.224l-1.296.072-1.296.072V.8h8.1v1.188c-.888.024-1.512.228-1.872.612-.336.384-.528.9-.576 1.548a62.223 62.223 0 0 0-.036 2.268V21.86c0 .648-.012 1.2-.036 1.656 0 .456-.024.84-.072 1.152l6.732-.108c1.512-.024 2.652-.504 3.42-1.44.792-.936 1.188-2.46 1.188-4.572h1.224L18.836 26H.98z"/><path fill="#FFCD4D" d="M24.924 26.576c-.552 0-1.043-.216-1.476-.648-.407-.456-.611-1.008-.611-1.656 0-.648.215-1.2.648-1.656.431-.456.924-.684 1.476-.684.6 0 1.091.228 1.476.684.407.456.611 1.008.611 1.656 0 .648-.215 1.2-.647 1.656-.433.432-.924.648-1.477.648z"/></svg>